<svg width="128" height="128" viewBox="0 0 33.867 33.867" xmlns="http://www.w3.org/2000/svg"><path d="M4.167 4.69c-.738 0-1.124.281-1.124.878s.386.914 1.124.914h.984l4.59 12.099c0 1.918 1.8 3.473 3.718 3.473h.002v7.12c7.873-8.224 17.363-6.603 17.363-17.363H19.639l2.131-5.328h.949c.773 0 1.16-.317 1.16-.914s-.387-.878-1.16-.878h-5.27c-.739 0-1.125.28-1.125.878s.386.914 1.124.914h2.495l-3.882 9.465a3.473 3.473 0 00-2.6-1.18 3.473 3.473 0 00-2.645 1.224l-3.733-9.51h2.39c.772 0 1.159-.316 1.159-.913s-.387-.878-1.16-.878z" fill="#1a1a1a"/></svg>
