<svg viewBox="0 0 39.158 13.229" xmlns="http://www.w3.org/2000/svg"><path d="M0 11.17h15.052v2.059H0z" fill="#5aa02c"/><path d="M.61 0C.21 0 0 .152 0 .474c0 .323.21.494.61.494h.532L3.63 7.505c0 1.036.975 1.876 2.014 1.876h.001v3.848c4.266-4.444 9.408-3.568 9.408-9.382h-6.06L10.146.968h.514c.42 0 .629-.17.629-.494 0-.322-.21-.474-.629-.474H7.805c-.4 0-.61.152-.61.474 0 .323.21.494.61.494h1.352L7.054 6.082a1.884 1.884 0 00-2.842.024L2.189.968h1.295c.418 0 .628-.171.628-.494 0-.322-.21-.474-.628-.474z" fill="#333"/><g fill="#0094c6" aria-label="Vet"><path d="M24.721 2.674c-.042.404-.229.777-.34 1.165-.774 2.31-1.543 4.623-2.318 6.933-.151.464-.759.715-1.167.415-.367-.266-.403-.749-.563-1.14-.795-2.386-1.596-4.77-2.388-7.156-.152-.47.22-1.005.726-.976a.757.757 0 01.81.621l1.84 5.518c.63-1.888 1.255-3.779 1.89-5.666.207-.635 1.244-.63 1.462-.011a.871.871 0 01.048.297zM31.52 9.221c-.026.435-.356.772-.638 1.074-1.127 1.082-2.96 1.347-4.332.589-.932-.515-1.684-1.439-1.799-2.52-.132-.97.175-1.998.874-2.691a3.612 3.612 0 012.636-1.147c1.062-.007 2.082.499 2.835 1.227.343.322.579.886.289 1.315-.213.268-.556.37-.84.544L27.161 9.43c.807.504 1.99.427 2.65-.29.235-.28.436-.67.848-.7.437-.043.874.335.86.781zm-2.065-2.809c-.818-.516-1.996-.409-2.666.307-.378.351-.55.886-.486 1.394l3.152-1.7zM39.158 9.657c-.041.547-.523.94-.955 1.214-1.089.678-2.621.583-3.56-.315-.678-.589-1.03-1.494-.976-2.385V6.093c-.367-.02-.813.088-1.091-.215-.417-.401-.215-1.27.398-1.34.23-.022.462-.008.693-.012.008-.666-.016-1.334.014-1.999.073-.647 1.01-.823 1.39-.343.253.327.136.758.163 1.14v1.202c.666.008 1.334-.016 1.999.014.5.058.724.633.57 1.07-.117.38-.541.523-.903.483h-1.666c.004.801-.008 1.603.007 2.403.06.825.957 1.446 1.752 1.21.554-.112.783-.804 1.364-.833.417-.002.808.357.8.784z"/></g></svg>
